<svg xmlns="http://www.w3.org/2000/svg" version="1.1" xmlns:xlink="http://www.w3.org/1999/xlink" xmlns:svgjs="http://svgjs.dev/svgjs" width="1500" height="1500" viewBox="0 0 1500 1500"><rect width="1500" height="1500" fill="#ffffff"></rect><g transform="matrix(0.6666666666666666,0,0,0.6666666666666666,249.39393939393938,592.0208697329615)"><svg viewBox="0 0 396 125" data-background-color="#ffffff" preserveAspectRatio="xMidYMid meet" height="473" width="1500" xmlns="http://www.w3.org/2000/svg" xmlns:xlink="http://www.w3.org/1999/xlink"><g id="tight-bounds" transform="matrix(1,0,0,1,0.2400000000000091,0.12386242086625998)"><svg viewBox="0 0 395.52 124.7522751582675" height="124.7522751582675" width="395.52"><g><svg viewBox="0 0 617.3920446691476 194.73367272727265" height="124.7522751582675" width="395.52"><g><rect width="8.06141908840727" height="194.73367272727265" x="192.70743424983124" y="0" fill="#d4af37" opacity="1" stroke-width="0" stroke="transparent" fill-opacity="1" class="rect-qz-0" data-fill-palette-color="primary" rx="1%" id="qz-0" data-palette-color="#d4af37"></rect></g><g transform="matrix(1,0,0,1,221.87204466914758,0.48441212121211663)"><svg viewBox="0 0 395.52 193.76484848484841" height="193.76484848484841" width="395.52"><g id="textblocktransform"><svg viewBox="0 0 395.52 193.76484848484841" height="193.76484848484841" width="395.52" id="textblock"><g><svg viewBox="0 0 395.52 193.76484848484841" height="193.76484848484841" width="395.52"><g transform="matrix(1,0,0,1,0,0)"><svg width="395.52" viewBox="2.7500000000000018 -35.5 160.2 74.6" height="193.76484848484841" data-palette-color="#d4af37"><svg></svg><svg></svg><g class="wordmark-text-0" data-fill-palette-color="primary" id="text-0"><path d="M22.15-33.75v0l-0.8 3.35-2.9-0.85c-2.067-0.5-3.85-0.75-5.35-0.75v0c-3.933 0-5.9 1.75-5.9 5.25v0c0 1.533 0.6 2.79 1.8 3.77 1.2 0.987 2.66 1.77 4.38 2.35 1.713 0.587 3.43 1.22 5.15 1.9 1.713 0.687 3.17 1.737 4.37 3.15 1.2 1.42 1.8 3.213 1.8 5.38v0c0 3.3-1.017 5.873-3.05 7.72-2.033 1.853-4.917 2.78-8.65 2.78v0c-1.867 0-3.74-0.277-5.62-0.83-1.887-0.547-3.43-1.187-4.63-1.92v0l1.25-2.85c3.033 1.4 5.91 2.1 8.63 2.1 2.713 0 4.777-0.55 6.19-1.65 1.42-1.1 2.13-2.7 2.13-4.8v0c0-2.133-1.15-3.8-3.45-5v0c-1.033-0.533-2.173-1.033-3.42-1.5-1.253-0.467-2.503-0.977-3.75-1.53-1.253-0.547-2.387-1.17-3.4-1.87-1.02-0.7-1.857-1.65-2.51-2.85-0.647-1.2-0.97-2.6-0.97-4.2v0c0-2.867 0.86-5.067 2.58-6.6 1.713-1.533 4.02-2.3 6.92-2.3 2.9 0 5.967 0.583 9.2 1.75zM42.9-14.95v0h2.05c0-3.033-0.383-5.01-1.15-5.93-0.767-0.913-2.467-1.37-5.1-1.37-2.633 0-4.867 0.35-6.7 1.05v0l-0.7-2.9c2.8-0.933 5.7-1.4 8.7-1.4v0c5.867 0 8.8 2.933 8.8 8.8v0 16.7h-2.2l-1.3-2.95c-1.533 1.267-2.857 2.123-3.97 2.57-1.12 0.453-2.413 0.68-3.88 0.68v0c-2.333 0-4.15-0.693-5.45-2.08-1.3-1.38-1.95-3.203-1.95-5.47v0c0-5.133 4.283-7.7 12.85-7.7zM45-6.55v-5.25h-2.25c-3.4 0-5.74 0.333-7.02 1-1.287 0.667-1.93 1.707-1.93 3.12 0 1.42 0.367 2.58 1.1 3.48 0.733 0.9 1.693 1.35 2.88 1.35 1.18 0 2.31-0.277 3.39-0.83 1.087-0.547 2.363-1.503 3.83-2.87zM60.95 0h-3.75v-25h3.75zM57.2-35h3.75v4.45h-3.75zM73.05-19.85v0 19.85h-3.75v-25h2.4l0.6 2.45c0.767-0.6 1.39-1.067 1.87-1.4 0.487-0.333 1.263-0.677 2.33-1.03 1.067-0.347 2.2-0.52 3.4-0.52v0c2.3 0 4.21 0.707 5.73 2.12 1.513 1.42 2.27 3.43 2.27 6.03v0 17.35h-3.75v-16.25c0-4.033-1.683-6.05-5.05-6.05v0c-2.4 0-4.417 0.817-6.05 2.45zM100.05 0h-3.75v-25h3.75zM96.3-35h3.75v4.45h-3.75z" fill="#d4af37" fill-rule="nonzero" stroke="none" stroke-width="1" stroke-linecap="butt" stroke-linejoin="miter" stroke-miterlimit="10" stroke-dasharray="" stroke-dashoffset="0" font-family="none" font-weight="none" font-size="none" text-anchor="none" style="mix-blend-mode: normal" data-fill-palette-color="primary" opacity="1"></path><path transform="translate(0,38.8)" d="M29.85-18.75v0c0 5.633-1.633 10.167-4.9 13.6-3.267 3.433-7.633 5.15-13.1 5.15v0h-7.3v-35h8.85c4.967 0 8.95 1.517 11.95 4.55 3 3.033 4.5 6.933 4.5 11.7zM25.8-19.15v0c0-3.933-1.2-7.017-3.6-9.25-2.4-2.233-5.267-3.35-8.6-3.35v0h-5v28.5h3.7c3.767 0 6.96-1.417 9.58-4.25 2.613-2.833 3.92-6.717 3.92-11.65zM40.65-19.1v0 19.1h-3.75v-25h2.4l0.6 2.95c1.6-1.267 2.933-2.16 4-2.68 1.067-0.513 2.283-0.77 3.65-0.77v0c0.667 0 1.167 0.033 1.5 0.1v0l0.7 0.2-0.6 3.45c-0.6-0.2-1.417-0.3-2.45-0.3v0c-2 0-4.017 0.983-6.05 2.95zM72.8-11.7v0h-15.95c0 3.2 0.76 5.467 2.28 6.8 1.513 1.333 3.42 2 5.72 2v0c1.167 0 1.983-0.06 2.45-0.18 0.467-0.113 0.91-0.23 1.33-0.35 0.413-0.113 0.703-0.203 0.87-0.27v0c0.833-0.233 1.55-0.45 2.15-0.65v0l0.6 2.9c-3.333 1.167-5.933 1.75-7.8 1.75v0c-3.433 0-6.183-1.043-8.25-3.13-2.067-2.08-3.1-5.213-3.1-9.4 0-4.18 0.977-7.437 2.93-9.77 1.947-2.333 4.413-3.5 7.4-3.5 2.98 0 5.303 0.967 6.97 2.9 1.667 1.933 2.5 4.55 2.5 7.85v0c0 0.9-0.033 1.917-0.1 3.05zM57.1-14.55v0h12.2c0-2.467-0.433-4.367-1.3-5.7-0.867-1.333-2.373-2-4.52-2-2.153 0-3.73 0.717-4.73 2.15-1 1.433-1.55 3.283-1.65 5.55zM78.05-1.65l0.9-2.8c2.167 1 4.233 1.5 6.2 1.5 1.967 0 3.46-0.393 4.48-1.18 1.013-0.78 1.52-1.82 1.52-3.12 0-1.3-0.433-2.31-1.3-3.03-0.867-0.713-1.923-1.27-3.17-1.67-1.253-0.4-2.503-0.833-3.75-1.3-1.253-0.467-2.313-1.167-3.18-2.1-0.867-0.933-1.3-2.117-1.3-3.55v0c0-2.1 0.683-3.727 2.05-4.88 1.367-1.147 3.217-1.72 5.55-1.72 2.333 0 4.5 0.35 6.5 1.05v0l0.35 0.15-0.65 3.2c-2-0.767-3.857-1.15-5.57-1.15-1.72 0-2.897 0.267-3.53 0.8-0.633 0.533-0.95 1.433-0.95 2.7v0c0 0.8 0.433 1.483 1.3 2.05 0.867 0.567 1.927 1.057 3.18 1.47 1.247 0.42 2.497 0.903 3.75 1.45 1.247 0.553 2.303 1.38 3.17 2.48 0.867 1.1 1.3 2.45 1.3 4.05v0c0 2.333-0.817 4.173-2.45 5.52-1.633 1.353-3.883 2.03-6.75 2.03-2.867 0-5.417-0.65-7.65-1.95zM99.85-1.65l0.9-2.8c2.167 1 4.233 1.5 6.2 1.5 1.967 0 3.46-0.393 4.48-1.18 1.013-0.78 1.52-1.82 1.52-3.12 0-1.3-0.433-2.31-1.3-3.03-0.867-0.713-1.923-1.27-3.17-1.67-1.253-0.4-2.503-0.833-3.75-1.3-1.253-0.467-2.313-1.167-3.18-2.1-0.867-0.933-1.3-2.117-1.3-3.55v0c0-2.1 0.683-3.727 2.05-4.88 1.367-1.147 3.217-1.72 5.55-1.72 2.333 0 4.5 0.35 6.5 1.05v0l0.35 0.15-0.65 3.2c-2-0.767-3.857-1.15-5.57-1.15-1.72 0-2.897 0.267-3.53 0.8-0.633 0.533-0.95 1.433-0.95 2.7v0c0 0.8 0.433 1.483 1.3 2.05 0.867 0.567 1.927 1.057 3.18 1.47 1.247 0.42 2.497 0.903 3.75 1.45 1.247 0.553 2.303 1.38 3.17 2.48 0.867 1.1 1.3 2.45 1.3 4.05v0c0 2.333-0.817 4.173-2.45 5.52-1.633 1.353-3.883 2.03-6.75 2.03-2.867 0-5.417-0.65-7.65-1.95zM140.85-11.7v0h-15.95c0 3.2 0.757 5.467 2.27 6.8 1.52 1.333 3.43 2 5.73 2v0c1.167 0 1.983-0.06 2.45-0.18 0.467-0.113 0.91-0.23 1.33-0.35 0.413-0.113 0.703-0.203 0.87-0.27v0c0.833-0.233 1.55-0.45 2.15-0.65v0l0.6 2.9c-3.333 1.167-5.933 1.75-7.8 1.75v0c-3.433 0-6.183-1.043-8.25-3.13-2.067-2.08-3.1-5.213-3.1-9.4 0-4.18 0.977-7.437 2.93-9.77 1.947-2.333 4.41-3.5 7.39-3.5 2.987 0 5.313 0.967 6.98 2.9 1.667 1.933 2.5 4.55 2.5 7.85v0c0 0.9-0.033 1.917-0.1 3.05zM125.15-14.55v0h12.2c0-2.467-0.433-4.367-1.3-5.7-0.867-1.333-2.373-2-4.52-2-2.153 0-3.73 0.717-4.73 2.15-1 1.433-1.55 3.283-1.65 5.55zM146.1-1.65l0.9-2.8c2.167 1 4.233 1.5 6.2 1.5 1.967 0 3.46-0.393 4.48-1.18 1.013-0.78 1.52-1.82 1.52-3.12 0-1.3-0.433-2.31-1.3-3.03-0.867-0.713-1.927-1.27-3.18-1.67-1.247-0.4-2.497-0.833-3.75-1.3-1.247-0.467-2.303-1.167-3.17-2.1-0.867-0.933-1.3-2.117-1.3-3.55v0c0-2.1 0.683-3.727 2.05-4.88 1.367-1.147 3.217-1.72 5.55-1.72 2.333 0 4.5 0.35 6.5 1.05v0l0.35 0.15-0.65 3.2c-2-0.767-3.86-1.15-5.58-1.15-1.713 0-2.887 0.267-3.52 0.8-0.633 0.533-0.95 1.433-0.95 2.7v0c0 0.8 0.433 1.483 1.3 2.05 0.867 0.567 1.923 1.057 3.17 1.47 1.253 0.42 2.503 0.903 3.75 1.45 1.253 0.553 2.313 1.38 3.18 2.48 0.867 1.1 1.3 2.45 1.3 4.05v0c0 2.333-0.817 4.173-2.45 5.52-1.633 1.353-3.883 2.03-6.75 2.03-2.867 0-5.417-0.65-7.65-1.95z" fill="#d4af37" fill-rule="nonzero" stroke="none" stroke-width="1" stroke-linecap="butt" stroke-linejoin="miter" stroke-miterlimit="10" stroke-dasharray="" stroke-dashoffset="0" font-family="none" font-weight="none" font-size="none" text-anchor="none" style="mix-blend-mode: normal" data-fill-palette-color="primary" opacity="1"></path></g></svg></g></svg></g></svg></g></svg></g><g transform="matrix(1,0,0,1,0,0.48441212121211663)"><svg viewBox="0 0 171.60424291892215 193.76484848484841" height="193.76484848484841" width="171.60424291892215"><g><svg xmlns="http://www.w3.org/2000/svg" xmlns:xlink="http://www.w3.org/1999/xlink" version="1.1" x="0" y="0" viewBox="16.391 9.146999999999998 84.219 95.09486185755637" enable-background="new 0 0 120 120" xml:space="preserve" height="193.76484848484841" width="171.60424291892215" class="icon-icon-0" data-fill-palette-color="accent" id="icon-0"><path d="M66.727 10.402c0.07-0.907 5.508-1.255 5.508-1.255s1.952 5.926 5.508 7.111c3.556 1.185 8.436-2.231 8.436-2.231s3.555 3.068 3.834 5.09c-1.744 2.928-3.626 3.974-3.626 3.974s0.209 8.436 0.767 11.503c-1.115 5.16-7.877 4.811-7.877 4.811l-5.299 5.229c21.403 18.615 8.645 39.25 26.632 56.541C53.48 115.256 49.368 76.562 16.391 71.613c19.382-32.627 41.063-30.256 41.063-30.256 1.604-7.669 0.418-19.382 0.418-19.382S71.887 22.881 66.727 10.402z" fill="#d4af37" data-fill-palette-color="accent"></path></svg></g></svg></g></svg></g><defs></defs></svg><rect width="395.52" height="124.7522751582675" fill="none" stroke="none" visibility="hidden"></rect></g></svg></g></svg>